<?xml version="1.0" encoding="utf-8"?>
<!-- Generator: Adobe Illustrator 22.0.1, SVG Export Plug-In . SVG Version: 6.00 Build 0)  -->
<svg version="1.1" id="Layer_1" xmlns="http://www.w3.org/2000/svg" xmlns:xlink="http://www.w3.org/1999/xlink" x="0px" y="0px"
	 viewBox="0 0 50.9 50.8" style="enable-background:new 0 0 50.9 50.8;" xml:space="preserve">
<style type="text/css">
	.st0{fill:#EFAA85;}
</style>
<g>
	<g>
		<path class="st0" d="M38,50.8c4.6,0,8.5-1.5,11.4-5.1c2.9-3.6,1.7-7.7-2.6-9.2c-1.6-0.5-3.1-1.1-4.7-1.6c-6.3-2.1-5.5-2.3-9.8,2.1
			c-0.1,0.1-0.2,0.2-0.3,0.2c-0.9,1.1-1.9,1.1-3,0.5c-6.3-3.5-11.5-8-15.1-14.3c-1.7-3-1.7-3.1,0.7-5.6c0.5-0.5,1-1,1.5-1.5
			c1.3-1.1,1.5-2.6,1-4.1c-1.1-3.2-2.2-6.3-3.2-9.5c-0.5-1.4-1.4-2.2-2.8-2.4C7.5-0.5,4.7,0.8,2.4,4.5C-1.3,10.3-0.3,16.2,2.6,22
			C8.1,32.9,16.4,41.2,27,47.3C30.4,49.2,34,50.7,38,50.8z"/>
		<path class="st0" d="M38,50.8c-3.9-0.1-7.6-1.6-11-3.5C16.4,41.2,8.1,32.9,2.6,22c-2.9-5.8-3.9-11.6-0.2-17.5
			c2.3-3.7,5.1-5,8.7-4.3c1.5,0.3,2.4,1,2.8,2.4c1.1,3.2,2.2,6.3,3.2,9.5c0.5,1.6,0.3,3-1,4.1c-0.5,0.5-1,1-1.5,1.5
			c-2.4,2.5-2.4,2.6-0.7,5.6c3.6,6.3,8.8,10.8,15.1,14.3c1.2,0.6,2.2,0.6,3-0.5c0.1-0.1,0.2-0.2,0.3-0.2c4.3-4.4,3.6-4.2,9.8-2.1
			c1.6,0.5,3.1,1.1,4.7,1.6c4.3,1.5,5.5,5.7,2.6,9.2C46.5,49.3,42.6,50.7,38,50.8z"/>
	</g>
</g>
</svg>
