<?xml version="1.0" encoding="utf-8"?>
<!-- Generator: Adobe Illustrator 22.0.1, SVG Export Plug-In . SVG Version: 6.00 Build 0)  -->
<svg version="1.1" id="Layer_1" xmlns="http://www.w3.org/2000/svg" xmlns:xlink="http://www.w3.org/1999/xlink" x="0px" y="0px"
	 viewBox="0 0 45.6 72" style="enable-background:new 0 0 45.6 72;" xml:space="preserve">
<style type="text/css">
	.st0{fill:#172C2E;}
	.st1{fill:#EBD4B8;}
	.st2{fill:#FFFFFF;}
</style>
<g>
	<path class="st0" d="M40.8,34c1.6,1.4,2.5,3.2,2.7,5.2c0.4,3-0.2,6-1.3,8.8c-0.6,1.5-1.3,3-2.3,4.3c-0.1,0.2-0.3,0.4-0.5,0.5
		c-0.2-0.2-0.1-0.4,0-0.6c0.1-0.5,0.3-1,0.1-1.5c-0.7,0.4-1.4,0.8-2,1.4c-1.6,1.4-2.7,3.2-3.4,5.2c-0.7,1.8-1.3,3.6-1.7,5.4
		c-0.1,0.2,0.1,0.4,0.2,0.6c0,0.1,0.1,0.1,0.1,0.2c-0.1,0.1-0.1,0-0.2,0c-0.5-0.4-0.8-0.9-1-1.4c-0.1-0.3-0.2-0.6-0.2-1
		c0-0.1,0-0.2-0.2-0.2c-2.1,0.4-3.6,1.5-4.8,3.2c-1.2,1.8-2,3.8-2.6,5.9c-0.2,0.6-0.4,1.3-0.5,1.9c0,0.2-0.1,0.2-0.3,0.2
		c-0.1,0-0.2,0-0.3-0.2c-0.5-2.5-1.4-4.9-2.7-7.1c-0.8-1.5-2-2.7-3.5-3.4c-0.5-0.3-1.1-0.4-1.7-0.5c-0.2,0-0.1,0.1-0.1,0.2
		c-0.1,0.8-0.3,1.5-0.9,2.1c-0.1,0.2-0.3,0.3-0.5,0.4c0,0-0.1,0-0.1,0c0,0,0-0.1,0-0.1c0.3-0.3,0.2-0.6,0.1-1
		C12.7,60,12,57.7,11,55.5c-1-2-2.5-3.6-4.4-4.7c0,0-0.1,0-0.2-0.1c-0.1,0.3,0,0.6,0,0.9c0,0.3,0.1,0.6,0.2,0.9
		c0.1,0.2-0.1,0.2-0.1,0.4c0,0.1-0.1,0-0.1,0c-0.2-0.1-0.3-0.3-0.4-0.5c-1.1-1.5-1.8-3.2-2.5-4.9c-0.9-2.3-1.3-4.7-1.2-7.1
		c0.1-2,0.6-3.9,1.9-5.5c0.4-0.4,0.8-0.8,1.2-1.1c-0.1,0-0.1,0-0.2,0c-1.5,0.5-2.9,1-4.4,1.5c0,0-0.1,0-0.1,0c-0.1,0-0.2,0-0.3-0.1
		c-0.1-0.1-0.1-0.2,0-0.3c0.3-0.9,0.6-1.8,1-2.8c0.4-1.2,0.8-2.4,1.3-3.6c-0.1,0-0.2,0-0.3,0.1c-0.6,0.2-1.2,0.5-1.8,0.7
		c-0.1,0.1-0.3,0.1-0.4,0c-0.1-0.2,0-0.3,0-0.4c2-3.5,4-7,6-10.4c0.1-0.1,0.1-0.2,0.1-0.4C6,17.4,5.8,16.6,5.4,16
		c-0.5-0.7-1-1.3-1.5-2C3,12.6,2.3,11.1,1.7,9.6c-0.4-1.1-0.8-2.1-1-3.3C0.3,4.6,0.4,2.9,0.8,1.2C0.8,0.9,0.9,0.6,1,0.3
		C1,0,1.2-0.1,1.5,0.1c1.4,0.7,2.9,1.4,4.3,2.1c3.9,2,7.9,3.9,11.8,5.9c0.1,0,0.2,0,0.3,0c1.9-0.5,3.8-0.7,5.8-0.6
		c1.5,0.1,2.9,0.3,4.4,0.7c0.2,0,0.3,0,0.5,0C33.8,5.6,39.1,3,44.3,0.3c0,0,0.1,0,0.1-0.1c0.4-0.1,0.5-0.2,0.7,0.3
		C45.5,2,45.7,3.5,45.6,5c-0.1,0.9-0.3,1.8-0.5,2.6c-0.4,1.2-0.8,2.4-1.3,3.6c-0.5,1.2-1.2,2.4-2,3.5c-0.4,0.5-0.7,1-1.1,1.5
		c-0.4,0.6-0.6,1.2-0.7,1.9c-0.1,0.4-0.1,0.7-0.2,1.1c0,0.1,0.1,0.2,0.1,0.3c1.8,3.2,3.6,6.4,5.4,9.5c0,0,0,0.1,0.1,0.1
		c0.1,0.1,0.1,0.2,0,0.3c-0.1,0.1-0.2,0.1-0.3,0.1c-0.6-0.2-1.2-0.5-1.9-0.7c-0.1,0-0.2-0.1-0.3-0.1c0.2,0.5,0.3,1,0.5,1.5
		c0.6,1.6,1.1,3.2,1.7,4.7c0,0.1,0.2,0.3,0,0.4c-0.1,0.1-0.3,0.1-0.5,0c-1.2-0.4-2.5-0.9-3.7-1.3C40.9,34,40.9,34,40.8,34
		C40.8,33.9,40.7,33.9,40.8,34C40.7,34,40.7,34,40.8,34z M24.5,40.4L24.5,40.4c-0.1,0-0.2,0.1-0.3,0.1c-1,0.4-2,0.4-3,0
		c-0.9-0.3-1.9-0.7-2.8-1.2c-1.4-0.7-2.9-1.3-4.3-1.9c-0.3-0.1-0.5-0.1-0.7,0.1c-0.7,0.5-1.4,1.1-2,1.7c-1.3,1.4-2.1,3.1-2.2,5
		c-0.1,2.2,0.6,4.1,2.3,5.6c1.2,1.1,2.4,2,3.8,2.9c0.5,0.4,1.1,0.6,1.6,1.1c0.7,0.6,1.3,1.3,1.9,1.9c1.3,1.5,2.2,3.2,3.1,5
		c0.2,0.4,0.4,0.9,0.7,1.4c0.4-1,0.9-1.8,1.3-2.7c1-1.8,2.1-3.5,3.6-4.9c0.3-0.3,0.6-0.6,1-0.8c1.4-0.9,2.8-1.8,4.1-2.9
		c0.6-0.5,1.3-1,1.8-1.6c1-1.3,1.5-2.7,1.6-4.3c0-1.4-0.3-2.7-1-4c-0.8-1.4-1.9-2.5-3.3-3.4c-0.2-0.2-0.3-0.2-0.6-0.1
		c-0.5,0.2-1,0.5-1.6,0.7c-1.1,0.5-2.2,1-3.3,1.4C25.7,39.8,25.1,40,24.5,40.4z M25.6,29.3C25.6,29.3,25.6,29.3,25.6,29.3
		C25.7,29.3,25.6,29.3,25.6,29.3c-0.6-1-1.8-1.8-2.9-1.7c-1,0.1-2.4,1-2.6,1.8c0.9,0.1,1.1,0.9,1.6,1.5c-0.1,0-0.2,0-0.3,0
		c0.6,0.3,1.2,0.5,1.8,0.4c0.3-0.1,0.7-0.1,1-0.4c0,0,0.1-0.1,0-0.1c-0.1-0.1-0.1-0.1,0-0.2c0.3-0.4,0.6-0.7,0.9-1
		C25.3,29.4,25.4,29.2,25.6,29.3z M0.8,3.2c0,0.6,0,1.2,0.1,1.8C1,5.5,1,6.1,1.1,6.6C1.3,7.4,1.5,8.2,1.8,9c0.3,0.8,0.6,1.6,1.1,2.3
		c0.3,0.5,0.7,1,1.1,1.5c1,1.4,2,2.9,3,4.3c0.2,0.4,0.3,0.4,0.7,0.1c0.7-0.5,1.5-1,2.3-1.3c0.5-0.2,0.9-0.6,1.2-1.1
		c0.3-0.5,0.7-0.9,1.1-1.4c0.2-0.3,0.5-0.6,0.7-0.9c0.1-0.2,0-0.3-0.1-0.4c-0.7-0.5-1.4-0.8-2.1-1.3c-0.3-0.2-0.6-0.1-0.8-0.3
		c-0.2-0.1-0.5-0.3-0.7-0.4c-0.1-0.1-0.2-0.1-0.2-0.2C8.9,9.3,8.7,8.6,8.6,8C8.5,7.5,8.3,7.1,8,6.8C6.9,5.7,5.8,4.5,4.7,3.4
		c-0.5-0.5-1-1.1-1.6-1.6c-0.6-0.5-1.2-1-1.8-1.5c-0.1-0.1-0.2,0-0.2,0.1C0.9,1.4,0.7,2.3,0.8,3.2z M45,3.4c0-0.7,0-1.6-0.3-2.4
		c0-0.2,0-0.4-0.1-0.4c-0.2-0.1-0.3,0.2-0.4,0.3c-0.6,0.5-1.3,1-1.9,1.5c-1.6,1.6-3.2,3.3-4.8,5c-0.1,0.1-0.2,0.3-0.2,0.4
		c-0.2,0.8-0.4,1.6-0.6,2.5c0,0.1-0.1,0.2-0.2,0.3c-0.5,0.3-1,0.4-1.5,0.7c-0.1,0.1-0.2,0.2-0.3,0.2c-0.6,0.3-1.2,0.7-1.8,1.1
		c-0.1,0.1-0.2,0.2-0.1,0.4c0.2,0.4,0.5,0.6,0.7,1c0.3,0.4,0.6,0.8,0.9,1.2c0.3,0.4,0.5,0.8,1,1c0.1,0.1,0.3,0.1,0.4,0.2
		c0.8,0.4,1.6,0.9,2.3,1.4c0.3,0.2,0.3,0.1,0.5-0.1c0.3-0.4,0.6-0.8,0.8-1.2c0.8-1.1,1.5-2.2,2.3-3.2c0.8-1,1.5-2.1,1.9-3.4
		C44.6,7.7,45,5.6,45,3.4z M34.8,20.7c-0.9-0.8-2.6-1.4-3.9-1.2c-0.6,0.1-1.2,0.3-1.8,0.6c-1.3,0.8-2.1,2.1-2.7,3.4
		c-0.1,0.2-0.2,0.5-0.3,0.8c0.1,0,0.1,0,0.1,0c0.6-0.5,1.2-0.7,2-0.9c0.2,0,0.3,0,0.4,0.1c0.8,0.5,1.7,0.8,2.6,0.6
		c0.7-0.1,1.2-0.5,1.6-1.1c0.4-0.6,0.6-1.1,0.3-1.8c0-0.1,0-0.2,0.1-0.2c0.2-0.1,0.5-0.1,0.7-0.2C34.2,20.7,34.5,20.7,34.8,20.7z
		 M20,24.3C20,24.3,20,24.3,20,24.3c-0.5-1.5-1.3-2.8-2.4-3.8c-0.9-0.8-2-1.1-3.2-1c-1.1,0.1-2.1,0.5-3,1.1c0,0-0.1,0-0.1,0.1
		c0.1,0,0.2,0,0.2,0c0.4,0,0.8,0,1.2,0.2c0.1,0,0.2,0.1,0.2,0.3c-0.1,0.2-0.1,0.3-0.1,0.5c0.1,1,0.6,1.7,1.5,2.2c1,0.5,2,0.3,3-0.3
		c0.3-0.2,0.6-0.2,0.9-0.1c0,0,0.1,0,0.1,0C19,23.7,19.5,24,20,24.3z"/>
	<path class="st1" d="M31.7,37.5c1.4,0.9,2.5,2,3.3,3.4c0.7,1.2,1.1,2.5,1,4c-0.1,1.6-0.6,3.1-1.6,4.3c-0.5,0.6-1.2,1.1-1.8,1.6
		c-1.3,1.1-2.6,2-4.1,2.9c-0.4,0.2-0.6,0.6-1,0.8c-1.5,1.4-2.6,3.1-3.6,4.9c-0.5,0.9-0.9,1.8-1.3,2.7c-0.2-0.5-0.4-0.9-0.7-1.4
		c-0.9-1.7-1.9-3.5-3.1-5c-0.6-0.7-1.2-1.4-1.9-1.9c-0.5-0.4-1.1-0.7-1.6-1.1c-1.3-0.9-2.6-1.9-3.8-2.9c-1.7-1.5-2.4-3.4-2.3-5.6
		c0-1.9,0.9-3.6,2.2-5c0.6-0.7,1.2-1.2,2-1.7c0.2,0,0.4,0.2,0.6,0.3c0.9,0.3,1.7,0.7,2.6,1.1c0.9,0.4,1.7,0.7,2.6,1.1
		c0.6,0.3,1.3,0.5,1.9,0.7c0.5,0.2,1,0.3,1.5,0.3c0.5,0,0.9-0.1,1.4-0.2c0.2-0.1,0.4-0.1,0.6-0.3l0,0c0.3-0.1,0.6-0.2,0.9-0.3
		c0.2-0.1,0.5-0.3,0.7-0.3c0.5-0.1,1-0.4,1.5-0.6c1.1-0.5,2.3-0.9,3.4-1.4C31.2,37.7,31.4,37.5,31.7,37.5z"/>
	<path class="st1" d="M0.8,3.2C0.7,2.3,0.9,1.4,1.1,0.4c0-0.1,0.1-0.2,0.2-0.1c0.6,0.5,1.2,1,1.8,1.5c0.6,0.5,1.1,1.1,1.6,1.6
		C5.8,4.5,6.9,5.7,8,6.8C8.3,7.1,8.5,7.5,8.6,8c0.1,0.7,0.3,1.4,0.5,2c0,0.1,0.1,0.2,0.2,0.2c0.2,0.1,0.5,0.2,0.7,0.4
		c0.3,0.2,0.6,0.1,0.8,0.3c0.7,0.4,1.4,0.8,2.1,1.3c0.1,0.1,0.2,0.2,0.1,0.4c-0.2,0.3-0.5,0.6-0.7,0.9c-0.4,0.5-0.7,0.9-1.1,1.4
		c-0.3,0.5-0.7,0.8-1.2,1.1c-0.8,0.4-1.5,0.8-2.3,1.3c-0.4,0.2-0.4,0.2-0.7-0.1c-1-1.4-2-2.9-3-4.3c-0.4-0.5-0.7-1-1.1-1.5
		C2.4,10.6,2.1,9.8,1.8,9C1.5,8.2,1.3,7.4,1.1,6.6C1,6.1,1,5.5,0.9,5C0.8,4.4,0.8,3.8,0.8,3.2z"/>
	<path class="st1" d="M45,3.4c0,2.2-0.4,4.3-1.2,6.2c-0.5,1.2-1.2,2.3-1.9,3.4c-0.8,1.1-1.5,2.2-2.3,3.2c-0.3,0.4-0.6,0.8-0.8,1.2
		c-0.2,0.3-0.3,0.3-0.5,0.1c-0.8-0.5-1.5-0.9-2.3-1.4c-0.1-0.1-0.3-0.1-0.4-0.2c-0.5-0.2-0.7-0.6-1-1c-0.3-0.4-0.6-0.8-0.9-1.2
		c-0.2-0.3-0.5-0.6-0.7-1c-0.1-0.2-0.1-0.3,0.1-0.4c0.6-0.4,1.1-0.8,1.8-1.1c0.1-0.1,0.2-0.2,0.3-0.2c0.5-0.2,1-0.3,1.5-0.7
		c0.1-0.1,0.2-0.1,0.2-0.3c0.2-0.8,0.4-1.6,0.6-2.5c0-0.2,0.1-0.3,0.2-0.4c1.6-1.7,3.2-3.3,4.8-5c0.6-0.6,1.2-1,1.9-1.5
		c0.1-0.1,0.2-0.3,0.4-0.3c0.1,0,0.1,0.3,0.1,0.4C44.9,1.8,45,2.7,45,3.4z"/>
	<path class="st1" d="M34.8,20.7c-0.3,0.1-0.6,0.1-0.9,0.1c-0.2,0-0.5,0.1-0.7,0.2c-0.1,0-0.2,0.1-0.1,0.2c0.2,0.7,0,1.3-0.3,1.8
		c-0.4,0.6-0.9,0.9-1.6,1.1c-1,0.2-1.8-0.1-2.6-0.6c-0.1-0.1-0.3-0.1-0.4-0.1c-0.7,0.2-1.4,0.5-2,0.9c0,0,0,0-0.1,0
		c0.1-0.3,0.2-0.5,0.3-0.8c0.6-1.4,1.5-2.6,2.7-3.4c0.5-0.3,1.1-0.5,1.8-0.6C32.2,19.3,33.9,19.9,34.8,20.7z"/>
	<path class="st1" d="M20,24.3c-0.5-0.4-1-0.7-1.6-0.8c0,0-0.1,0-0.1,0c-0.3-0.1-0.6-0.1-0.9,0.1c-0.9,0.6-1.9,0.8-3,0.3
		c-0.9-0.4-1.4-1.2-1.5-2.2c0-0.2,0-0.3,0.1-0.5c0.1-0.2,0-0.2-0.2-0.3c-0.4-0.1-0.8-0.2-1.2-0.2c-0.1,0-0.2,0-0.2,0
		c0-0.1,0-0.1,0.1-0.1c0.9-0.6,1.9-1,3-1.1c1.2-0.1,2.3,0.2,3.2,1C18.7,21.5,19.5,22.8,20,24.3C20,24.3,20,24.3,20,24.3z"/>
	<path class="st1" d="M25.6,29.3c-0.3-0.1-0.4,0.2-0.5,0.3c-0.3,0.3-0.7,0.7-0.9,1c0,0.1-0.1,0.1,0,0.2c0.1,0.1,0,0.1,0,0.1
		c-0.3,0.2-0.6,0.3-1,0.4c-0.6,0.1-1.2-0.1-1.8-0.4c0.1,0,0.2,0,0.3,0c-0.5-0.6-0.7-1.4-1.6-1.5c0.2-0.7,1.5-1.7,2.6-1.8
		C23.9,27.4,25,28.3,25.6,29.3L25.6,29.3z"/>
	<path class="st1" d="M24.5,40.4c-0.1,0.2-0.4,0.2-0.6,0.3c-0.4,0.1-0.9,0.2-1.4,0.2c-0.5,0-1-0.1-1.5-0.3c-0.6-0.2-1.3-0.4-1.9-0.7
		c-0.9-0.4-1.7-0.7-2.6-1.1c-0.8-0.4-1.7-0.7-2.6-1.1c-0.2-0.1-0.4-0.2-0.6-0.3c0.2-0.2,0.4-0.3,0.7-0.1c1.4,0.7,2.9,1.3,4.3,1.9
		c0.9,0.4,1.8,0.8,2.8,1.2c1,0.4,2,0.3,3,0C24.4,40.5,24.5,40.4,24.5,40.4z"/>
	<path class="st1" d="M31.7,37.5c-0.3,0-0.5,0.2-0.7,0.3c-1.1,0.5-2.3,0.9-3.4,1.4c-0.5,0.2-1,0.4-1.5,0.6c-0.3,0.1-0.5,0.2-0.7,0.3
		c-0.3,0.1-0.6,0.2-0.9,0.3c0.6-0.3,1.2-0.6,1.8-0.9c1.1-0.5,2.2-1,3.3-1.4c0.5-0.2,1-0.5,1.6-0.7C31.4,37.3,31.6,37.3,31.7,37.5z"
		/>
	<path class="st2" d="M40.8,34C40.7,34,40.7,34,40.8,34C40.7,33.9,40.8,33.9,40.8,34C40.8,34,40.8,34,40.8,34z"/>
	<path class="st1" d="M25.6,29.3C25.6,29.3,25.7,29.3,25.6,29.3C25.6,29.3,25.6,29.3,25.6,29.3C25.6,29.3,25.6,29.3,25.6,29.3z"/>
</g>
</svg>
