<?xml version="1.0" encoding="utf-8"?>
<!-- Generator: Adobe Illustrator 22.0.1, SVG Export Plug-In . SVG Version: 6.00 Build 0)  -->
<svg version="1.1" id="Layer_1" xmlns="http://www.w3.org/2000/svg" xmlns:xlink="http://www.w3.org/1999/xlink" x="0px" y="0px"
	 viewBox="0 0 72 72" style="enable-background:new 0 0 72 72;" xml:space="preserve">
<style type="text/css">
	.st0{fill:#EC563C;}
	.st1{fill:#013A47;}
</style>
<g>
	<circle class="st0" cx="36" cy="36" r="36"/>
	<g>
		<g>
			<path class="st1" d="M46.7,19c-7.6,0-15,0-22.6,0c0,11.3,0,22.6,0,34c7.5,0,15,0,22.6,0c0-1.8,0-3.5,0-5.3c0-0.5,0.2-1.1,0.5-1.4
				c0.3-0.3,1-0.4,1.4-0.2c0.4,0.2,0.8,0.7,0.8,1.1c0.1,2.5,0.1,4.9,0,7.4c0,0.8-0.6,1.2-1.4,1.3c-0.7,0-1.3,0-2,0
				c-7.6,0-15.2,0-22.8,0c-1.6,0-2.1-0.4-2.1-2c0-11.9,0-23.9,0-35.8c0-1.5,0.4-2,2-2c8.1,0,16.2,0,24.3,0c1.6,0,2,0.4,2,2
				c0,2.1,0,4.2,0,6.3c0,1.1-0.5,1.7-1.4,1.8c-0.9,0-1.4-0.6-1.4-1.8C46.7,22.6,46.7,20.8,46.7,19z"/>
			<path class="st1" d="M50.4,37.4c-0.6,0-0.9,0-1.2,0c-4.4,0-8.7,0-13.1,0c-0.3,0-0.5,0-0.8,0C34.4,37.3,34,36.8,34,36
				c0-0.8,0.5-1.3,1.3-1.3c1.5,0,3,0,4.5,0c3.4,0,6.8,0,10.4,0c-0.2-0.3-0.4-0.5-0.5-0.7c-0.9-0.9-1.8-1.7-2.6-2.7
				c-0.6-0.6-0.6-1.3,0-1.9c0.6-0.6,1.3-0.7,1.9-0.1c2,1.9,4,3.9,5.9,5.9c0.5,0.5,0.4,1.3-0.1,1.8c-1.8,1.9-3.7,3.7-5.6,5.6
				c-0.7,0.7-1.5,0.7-2.1,0.1c-0.6-0.6-0.6-1.4,0.1-2.1c0.8-0.8,1.6-1.6,2.3-2.4C49.8,38,50,37.8,50.4,37.4z"/>
		</g>
	</g>
</g>
</svg>
