<svg id="Layer_1" data-name="Layer 1" xmlns="http://www.w3.org/2000/svg" viewBox="0 0 475.61 475.78"><defs><style>.cls-1{fill:#fff;}</style></defs><title>search-icon</title><path class="cls-1" d="M384.25,443C284.18,511.38,160.82,473.24,106,395.26c-58.77-83.56-48.31-196.24,27-265.7,73.43-67.74,184.93-72.43,265-7,75.6,61.76,99,178.8,37.31,268.8,1.14,1.22,2.33,2.55,3.58,3.8q46.65,46.67,93.31,93.31c10.62,10.61,14.28,23.25,9.69,37.48-4.49,13.9-14.41,22.66-28.91,25.23-12.05,2.13-22.61-1.36-31.42-10.17q-46.65-46.68-93.42-93.21A54.43,54.43,0,0,1,384.25,443Zm-243-165.35C140.85,347.39,198,405,268.3,405.56c71,.61,127.87-56.13,129.13-127.31,1.25-70.5-59.57-128.38-126.49-129.09C202.94,148.44,140.39,205.38,141.29,277.64Z" transform="translate(-68.2 -76.03)"/></svg>