<?xml version="1.0" encoding="utf-8"?>
<!-- Generator: Adobe Illustrator 22.0.1, SVG Export Plug-In . SVG Version: 6.00 Build 0)  -->
<svg version="1.1" id="Layer_1" xmlns="http://www.w3.org/2000/svg" xmlns:xlink="http://www.w3.org/1999/xlink" x="0px" y="0px"
	 viewBox="0 0 72 72" style="enable-background:new 0 0 72 72;" xml:space="preserve">
<style type="text/css">
	.st0{fill:#EFA985;}
</style>
<path class="st0" d="M36,0C16.1,0,0,16.1,0,36s16.1,36,36,36s36-16.1,36-36S55.9,0,36,0z M36,66.6C19.1,66.6,5.3,52.9,5.3,36
	S19.1,5.4,36,5.4S66.7,19.1,66.7,36S52.9,66.6,36,66.6z"/>
<g>
	
		<rect x="13.1" y="41.7" transform="matrix(0.7071 0.7071 -0.7071 0.7071 37.9894 -3.0789)" class="st0" width="19.3" height="5.2"/>
	
		<rect x="19.6" y="33.4" transform="matrix(0.7071 -0.7071 0.7071 0.7071 -13.4558 39.5149)" class="st0" width="42.8" height="5.2"/>
</g>
</svg>
