<?xml version="1.0" encoding="utf-8"?>
<!-- Generator: Adobe Illustrator 22.0.1, SVG Export Plug-In . SVG Version: 6.00 Build 0)  -->
<svg version="1.1" id="Layer_1" xmlns="http://www.w3.org/2000/svg" xmlns:xlink="http://www.w3.org/1999/xlink" x="0px" y="0px"
	 viewBox="0 0 72 72" style="enable-background:new 0 0 72 72;" xml:space="preserve">
<style type="text/css">
	.st0{fill:#EC563C;}
</style>
<g>
	<g>
		<path class="st0" d="M11.2,13.9c16.6,0,33,0,49.6,0c-0.1,1-0.2,1.9-0.2,2.9c-0.8,8.4-1.7,16.9-2.5,25.3
			c-0.8,7.9-1.6,15.8-2.3,23.7c-0.4,4-2.5,6-6.6,6c-9,0-17.9,0-26.9,0c-3,0-5.5-2-5.9-4.7c-0.2-1.6-0.3-3.2-0.5-4.7
			c-0.5-5.3-1.1-10.6-1.6-15.8c-0.5-5.2-1-10.4-1.5-15.5c-0.5-5.1-1-10.3-1.5-15.4C11.3,15,11.2,14.5,11.2,13.9z M44.2,58.2
			c-0.1,1.4,0.9,2.5,2.4,2.6c1.6,0.1,3-0.9,3.1-2.5c0.1-0.8,0.1-1.6,0.2-2.3c0.5-5.5,0.9-11,1.4-16.5c0.4-4.8,0.8-9.6,1.2-14.3
			c0.1-1.6-0.7-2.8-2.2-3c-1.8-0.2-3.1,0.7-3.3,2.4c-0.1,0.9-0.1,1.7-0.2,2.6c-0.5,5.5-0.9,11-1.4,16.5
			C45.1,48.4,44.7,53.2,44.2,58.2z M19.4,25.4c0.1,1.2,0.2,2.3,0.3,3.3c0.4,4.9,0.8,9.8,1.2,14.7c0.4,5,0.8,10,1.3,15.1
			c0,0.5,0.4,1.1,0.7,1.5c0.8,0.9,2,1.1,3,0.6c1.2-0.5,1.9-1.6,1.8-2.9c-0.1-2.1-0.3-4.1-0.5-6.2c-0.4-4.9-0.8-9.8-1.2-14.7
			c-0.3-4-0.6-8-1-12c-0.1-1.6-1.5-2.7-3.1-2.6c-1.3,0.1-2.3,1.3-2.4,2.8C19.4,25.2,19.4,25.4,19.4,25.4z M38.7,41.4
			c0-0.3,0-0.5,0-0.8c0-5.2,0-10.5,0-15.7c0-1.5-0.8-2.5-2.1-2.8c-2-0.4-3.4,0.8-3.4,2.8c0,10.9,0,21.9,0,32.8c0,1.9,1.1,3,2.8,2.9
			c1.7,0,2.7-1.1,2.7-2.9C38.7,52.4,38.7,46.9,38.7,41.4z"/>
		<path class="st0" d="M8.4,8.2c0-1.1-0.1-2.1,0-3.1c0.2-1.5,1.2-2.3,2.9-2.4c3.7,0,7.5,0,11.2,0c1.7,0,3.4,0,5.1,0
			C28.3,0.4,28.8,0,31.3,0c3.3,0,6.5,0,9.8,0c2.1,0,2.9,0.6,3.3,2.8c0.3,0,0.7,0,1,0c5,0,10,0,15,0c2.2,0,3.2,1,3.2,3.2
			c0,0.7,0,1.5,0,2.3C45.2,8.2,26.8,8.2,8.4,8.2z"/>
	</g>
</g>
</svg>
