<?xml version="1.0" encoding="utf-8"?>
<!-- Generator: Adobe Illustrator 22.0.1, SVG Export Plug-In . SVG Version: 6.00 Build 0)  -->
<svg version="1.1" id="Layer_1" xmlns="http://www.w3.org/2000/svg" xmlns:xlink="http://www.w3.org/1999/xlink" x="0px" y="0px"
	 viewBox="0 0 72 50.8" style="enable-background:new 0 0 72 50.8;" xml:space="preserve">
<style type="text/css">
	.st0{fill:#EFAA85;}
</style>
<g>
	<g>
		<path class="st0" d="M55.2,14.4c3.6-1.8,6.8-3.4,9.9-5C69.3,7.4,72,9,72,13.5c0,7.8,0,15.7,0,23.5c0,4.8-2.7,6.5-7.1,4.3
			c-3-1.5-6.1-3-9.1-4.5c-0.1-0.1-0.3,0-0.7,0c0,1.7,0,3.4,0,5.1c-0.1,5.5-3.4,8.8-8.9,8.8c-12.3,0-24.7,0-37,0c-5.6,0-9-3.2-9-8.8
			C0,30.9,0,19.7,0.1,8.6C0.1,3.4,3.6,0,8.8,0c12.5,0,25,0,37.5,0c5.2,0,8.6,3.2,8.9,8.5C55.3,10.3,55.2,12.1,55.2,14.4z"/>
	</g>
</g>
</svg>
